<?xml version="1.0"?>
<svg xmlns="http://www.w3.org/2000/svg" id="_x33_0" enable-background="new 0 0 64 64" height="512px" viewBox="0 0 64 64" width="512px" class=""><g><g><g><g><path d="m22 52 10 10h-24v-10h12z" fill="#e6e9ed" data-original="#E6E9ED" class=""/></g><g><path d="m16.93 46h3.07v6h-12-1c-2.76 0-5-2.24-5-5v-12.26c0-3.34 2.36-6.21 5.63-6.87l.78-.15 2.88 5.04 2.55 4.46 2.18 3.82h.01c-.02.23-.03.46-.03.69 0 1.49.32 2.94.93 4.27z" fill="#e6e9ed" data-original="#E6E9ED" class=""/></g><g><path d="m21.38 32.82-1.04.58.37-.64 2.88-5.04.78.15c2.79.56 4.91 2.73 5.48 5.42-.37-.22-.75-.41-1.15-.57-1.14-.47-2.36-.72-3.62-.72-1.3 0-2.56.29-3.7.82z" fill="#e6e9ed" data-original="#E6E9ED" class=""/></g><g><path d="m13.61 30.91 1.39 2.09-1.16 4.22-2.55-4.46z" fill="#b4dd7f" data-original="#B4DD7F" class="" style="fill:#B4DD7F"/></g><g><path d="m20.34 33.4c-1.86 1.63-1.91 1.68-1.95 1.73-.21.25-.41.52-.58.79l-.01-.01-.8-2.91 1.39-2.09 2.32 1.85z" fill="#b4dd7f" data-original="#B4DD7F" class="" style="fill:#B4DD7F"/></g><g><path d="m17 33 .8 2.91.01.01c-1.14 1.95-1.55 3.17-1.78 5.12h-.01l-2.18-3.82 1.16-4.22z" fill="#fcd770" data-original="#FCD770" class="" style="fill:#CCD1D9" data-old_color="#fcd770"/></g><g><path d="m16 29 2.39 1.91-1.39 2.09h-2l-1.39-2.09z" fill="#ffc729" data-original="#FFC729" class="" data-old_color="#ffc729" style="fill:#CCD1D9"/></g><g><path d="m20 27 3.59.72-2.88 5.04-2.32-1.85-2.39-1.91z" fill="#a0d468" data-original="#A0D468" class="" data-old_color="#a0d468" style="fill:#518717"/></g><g><path d="m13.61 30.91-2.32 1.85-2.88-5.04 3.59-.72 4 2z" fill="#a0d468" data-original="#A0D468" class="" data-old_color="#a0d468" style="fill:#518717"/></g><g><path d="m8 12c-.9 0-1.7.39-2.24 1.02l-.01-.01c-.29-.96-.75-2.65-.75-4.01 0-.83.34-1.58.88-2.12s1.29-.88 2.12-.88l.34-.68c1.02-2.04 3.1-3.32 5.37-3.32h6.17c3.93 0 7.12 3.19 7.12 7.12 0 .59-.07 1.17-.21 1.73l-.54 2.16-.01.01c-.54-.63-1.34-1.02-2.24-1.02h-1-3-1c-2.52 0-4.69-1.56-5.57-3.77l-1.29.51c-1.46.58-2.53 1.8-2.94 3.26z" fill="#b27946" data-original="#B27946" class="" style="fill:#B27946" data-old_color="#b27946"/></g><g><path d="m41.02 18.41c.11 1.98 1.04 3.73 2.46 4.93-.73.42-1.58.66-2.48.66-2.76 0-5-2.24-5-5 0-1.44.61-2.74 1.59-3.66.04.08.08.17.13.25.46.82 1.14 1.53 1.98 2.03l1.31.79z" fill="#656d78" data-original="#656D78" class="" style="fill:#000000" data-old_color="#656d78"/></g><g><path d="m41 12v6c0 .14 0 .28.02.41h-.01l-1.31-.79c-.84-.5-1.52-1.21-1.98-2.03-.05-.08-.09-.17-.13-.25-.38-.76-.59-1.61-.59-2.49 0-1.2.39-2.37 1.11-3.33l1.01-1.34c.03.11.08.21.13.31z" fill="#656d78" data-original="#656D78" class="" style="fill:#000000" data-old_color="#656d78"/></g><g><path d="m60 19c0 2.76-2.24 5-5 5-.9 0-1.75-.24-2.48-.66.15-.12.29-.25.43-.39 1.18-1.18 1.94-2.76 2.03-4.54h.01l1.31-.79c.84-.5 1.52-1.21 1.98-2.03.05-.08.09-.17.13-.25.98.92 1.59 2.22 1.59 3.66z" fill="#656d78" data-original="#656D78" class="" style="fill:#000000" data-old_color="#656d78"/></g><g><path d="m56.3 17.62-1.31.79h-.01c.02-.13.02-.27.02-.41v-6l1.75-3.51c.05-.1.1-.2.13-.31l1.01 1.34c.72.96 1.11 2.13 1.11 3.33 0 .88-.21 1.73-.59 2.49-.04.08-.08.17-.13.25-.46.82-1.14 1.53-1.98 2.03z" fill="#656d78" data-original="#656D78" class="" style="fill:#000000" data-old_color="#656d78"/></g><g><path d="m48 12h-7l-1.75-3.51c-.05-.1-.1-.2-.13-.31-.08-.23-.12-.48-.12-.73 0-.89.5-1.7 1.29-2.1l5.82-2.9c.58-.3 1.23-.45 1.89-.45s1.31.15 1.89.45l5.82 2.9c.79.4 1.29 1.21 1.29 2.1 0 .25-.04.5-.12.73-.03.11-.08.21-.13.31l-1.75 3.51z" fill="#e6e9ed" data-original="#E6E9ED" class=""/></g><g><path d="m58 62h-10v-10h8c0 4 2 10 2 10z" fill="#e6e9ed" data-original="#E6E9ED" class=""/></g><g><path d="m48 52v10h-16l10-10z" fill="#e6e9ed" data-original="#E6E9ED" class=""/></g><g><path d="m42.15 27.37 1.85 4.63 4-3v12h-.03c-.15-2.15-.98-4.2-2.36-5.87-.83-.99-1.85-1.77-2.99-2.31-1.14-.53-2.4-.82-3.7-.82-1.69 0-3.34.45-4.77 1.29.57-2.69 2.69-4.86 5.48-5.42z" fill="#e6e9ed" data-original="#E6E9ED" class=""/></g><g><path d="m48 41.73c0-.24-.01-.49-.03-.73h.03v-12l4 3 1.85-4.63 2.52.5c3.27.66 5.63 3.53 5.63 6.87v7.26h-6v4h-8.93c.61-1.33.93-2.78.93-4.27z" fill="#e6e9ed" data-original="#E6E9ED" class=""/></g><g><path d="m53.85 27.37-1.85 4.63-4-3 4-2z" fill="#ccd1d9" data-original="#CCD1D9"/></g><g><path d="m48 29-4 3-1.85-4.63 1.85-.37z" fill="#ccd1d9" data-original="#CCD1D9"/></g><g><path d="m38.88 46.88c.54-.54 1.29-.88 2.12-.88h6.07c.61-1.33.93-2.78.93-4.27 0-.24-.01-.49-.03-.73-.15-2.15-.98-4.2-2.36-5.87-.83-.99-1.85-1.77-2.99-2.31-1.14-.53-2.4-.82-3.7-.82-1.69 0-3.34.45-4.77 1.29-.69.4-1.34.9-1.92 1.48l-.23.23-.23-.23c-.58-.58-1.23-1.08-1.92-1.48-.37-.22-.75-.41-1.15-.57-1.14-.47-2.36-.72-3.62-.72-1.3 0-2.56.29-3.7.82l-1.04.58c-1.86 1.63-1.91 1.68-1.95 1.73-.21.25-.41.52-.58.79-1.14 1.95-1.55 3.17-1.78 5.12-.02.23-.03.46-.03.69 0 1.49.32 2.94.93 4.27h3.07 3c.83 0 1.58.34 2.12.88l.52.69c.23.42.36.91.36 1.43 0 1.66-1.34 3-3 3h-1l10 10 10-10h-1c-1.66 0-3-1.34-3-3l.36-1.43z" fill="#ff826e" data-original="#FF826E" class="" style="fill:#C12020" data-old_color="#ff826e"/></g><g><path d="m38 45v2c0 .21-.06.4-.17.56-.18.26-.49.44-.83.44h-3v3c0 .55-.45 1-1 1h-2c-.55 0-1-.45-1-1v-3h-3c-.41 0-.77-.25-.92-.61-.05-.12-.08-.25-.08-.39v-2c0-.55.45-1 1-1h3v-3c0-.55.45-1 1-1h2c.55 0 1 .45 1 1v3h3c.55 0 1 .45 1 1z" fill="#e6e9ed" data-original="#E6E9ED" class=""/></g><g><circle cx="20" cy="15" fill="#69d6f4" r="3" data-original="#69D6F4" class="active-path" style="fill:#CCD1D9" data-old_color="#69d6f4"/></g><g><circle cx="12" cy="15" fill="#69d6f4" r="3" data-original="#69D6F4" class="active-path" style="fill:#CCD1D9" data-old_color="#69d6f4"/></g><g><path d="m24 12c.9 0 1.7.39 2.24 1.02.47.53.76 1.22.76 1.98 0 .83-.34 1.58-.88 2.12s-1.29.88-2.12.88h-1.07-.01c.06-.33.08-.66.08-1v-2-3z" fill="#f0d0b4" data-original="#F0D0B4" class="" style="fill:#F0D0B4"/></g><g><path d="m9.07 18h-1.07c-.83 0-1.58-.34-2.12-.88s-.88-1.29-.88-2.12c0-.76.29-1.45.76-1.98.54-.63 1.34-1.02 2.24-1.02h1.2c-.13.44-.2.91-.2 1.39v1.61 2c0 .34.02.67.08 1z" fill="#f0d0b4" data-original="#F0D0B4" class="" style="fill:#F0D0B4"/></g><g><path d="m20 18c-1.66 0-3-1.34-3-3s1.34-3 3-3h-1c-2.52 0-4.69-1.56-5.57-3.77l-1.29.51c-1.46.58-2.53 1.8-2.94 3.26-.13.44-.2.91-.2 1.39v1.61c0-1.66 1.34-3 3-3s3 1.34 3 3-1.34 3-3 3-3-1.34-3-3v2c0 .34.02.67.08 1 .21 1.54.92 2.9 1.97 3.95.47.47 1.01.87 1.59 1.19v.01c1 .54 2.14.85 3.36.85s2.36-.31 3.36-.85v-.01c1.89-1.03 3.25-2.92 3.56-5.14.06-.33.08-.66.08-1v-2c0 1.66-1.34 3-3 3z" fill="#f0d0b4" data-original="#F0D0B4" class="" style="fill:#F0D0B4"/></g><g><path d="m19.36 23.15.64 3.85-4 2-4-2 .64-3.85c1 .54 2.14.85 3.36.85s2.36-.31 3.36-.85z" fill="#f0d0b4" data-original="#F0D0B4" class="" style="fill:#F0D0B4"/></g><g><path d="m25.64 47.57c.23.42.36.91.36 1.43 0 1.66-1.34 3-3 3h-1-2v-6h3c.83 0 1.58.34 2.12.88z" fill="#f0d0b4" data-original="#F0D0B4" class="" style="fill:#F0D0B4"/></g><g><path d="m56 46v-4h6v5c0 2.76-2.24 5-5 5h-1-8-6-1c-1.66 0-3-1.34-3-3l.36-1.43.52-.69c.54-.54 1.29-.88 2.12-.88h6.07z" fill="#f0d0b4" data-original="#F0D0B4" class="" style="fill:#F0D0B4"/></g><g><path d="m44.71 24.18c.98.52 2.1.82 3.29.82l3.29-.82.71 2.82-4 2-4-2z" fill="#f0d0b4" data-original="#F0D0B4" class="" style="fill:#F0D0B4"/></g><g><path d="m55 12v6c0 .14 0 .28-.02.41-.09 1.78-.85 3.36-2.03 4.54-.14.14-.28.27-.43.39-.38.32-.79.61-1.23.84l-3.29.82c-1.19 0-2.31-.3-3.29-.82-.44-.23-.85-.52-1.23-.84-1.42-1.2-2.35-2.95-2.46-4.93-.02-.13-.02-.27-.02-.41v-6h7z" fill="#f0d0b4" data-original="#F0D0B4" class="" style="fill:#F0D0B4"/></g></g><g><path d="m56.569 26.895-3.752-.751-.374-1.495c.066-.044.127-.093.191-.139.744.318 1.549.49 2.366.49 3.309 0 6-2.691 6-6 0-1.419-.514-2.795-1.422-3.872.269-.721.422-1.488.422-2.275 0-1.41-.466-2.808-1.312-3.935l-.744-.992c.023-.159.056-.318.056-.479 0-1.274-.708-2.42-1.847-2.989l-5.812-2.905c-1.447-.723-3.235-.723-4.683 0l-5.811 2.905c-1.139.569-1.847 1.715-1.847 2.989 0 .161.033.319.056.478l-.744.991c-.846 1.129-1.312 2.526-1.312 3.937 0 .787.153 1.555.422 2.276-.909 1.076-1.422 2.452-1.422 3.871 0 3.309 2.691 6 6 6 .817 0 1.622-.172 2.366-.491.064.046.126.095.191.139l-.374 1.495-3.752.751c-2.989.597-5.34 2.835-6.132 5.749-.453.29-.89.609-1.3.97-.409-.362-.846-.681-1.3-.97-.792-2.914-3.142-5.153-6.131-5.749l-3.696-.739-.419-2.514c1.602-1.078 2.786-2.723 3.283-4.641h.264c2.206 0 4-1.794 4-4 0-.815-.248-1.572-.668-2.205l.425-1.701c.161-.643.243-1.306.243-1.971 0-4.479-3.644-8.123-8.123-8.123h-6.169c-2.668 0-5.067 1.482-6.261 3.869l-.091.183c-1.9.308-3.356 1.962-3.356 3.948 0 1.247.33 2.682.657 3.815-.413.629-.657 1.378-.657 2.185 0 2.206 1.794 4 4 4h.263c.497 1.919 1.681 3.563 3.283 4.641l-.419 2.514-3.696.739c-3.726.746-6.431 4.044-6.431 7.844v12.262c0 3.309 2.691 6 6 6v10h52.387l-.438-1.316c-.018-.054-1.634-4.947-1.906-8.686 3.288-.023 5.957-2.704 5.957-5.998v-12.262c0-3.8-2.705-7.098-6.431-7.843zm4.431 7.843v6.262h-4v-5h-2v9h-6.494c.32-1.057.494-2.149.494-3.269 0-.245-.016-.488-.032-.731h.032v-10l3.444 2.583 2.028-5.069 1.705.341c2.795.559 4.823 3.034 4.823 5.883zm-14.895-5.567-1.662 1.246-.921-2.302.336-.067zm6.035-1.123.336.067-.921 2.302-1.662-1.246zm-5.14 2.952v4.314c-.194-.282-.4-.556-.621-.821-.535-.641-1.149-1.193-1.812-1.669zm-5-13v-5h12v5c0 3.309-2.691 6-6 6s-6-2.691-6-6zm17 1c0 2.206-1.794 4-4 4-.24 0-.477-.029-.711-.072.872-1.11 1.455-2.452 1.641-3.92l.887-.532c.637-.383 1.186-.876 1.651-1.436.335.593.532 1.255.532 1.96zm-3-2.386v-4.377l1.071-2.142.018.023c.587.783.911 1.755.911 2.735 0 1.504-.764 2.918-2 3.761zm-15.258-10.367 5.811-2.905c.896-.447 2-.447 2.895 0l5.812 2.905c.456.229.74.689.74 1.2 0 .207-.049.414-.142.6l-1.476 2.953h-5.382v-2h2v-2h-2v-2h-2v2h-2v2h2v2h-5.382l-1.477-2.953c-.092-.186-.141-.393-.141-.6 0-.511.284-.971.742-1.2zm-1.83 3.87.017-.023 1.071 2.142v4.377c-1.236-.843-2-2.256-2-3.761 0-.979.324-1.951.912-2.735zm-1.912 8.883c0-.705.197-1.367.533-1.959.464.56 1.013 1.053 1.651 1.436l.887.532c.186 1.467.769 2.81 1.641 3.92-.235.042-.472.071-.712.071-2.206 0-4-1.794-4-4zm11 7c.914 0 1.789-.162 2.608-.445l.227.909-2.835 1.418-2.835-1.418.227-.909c.819.283 1.694.445 2.608.445zm-8.177 2.855 1.705-.341 1.331 3.327c-1.224-.543-2.56-.841-3.938-.841-.994 0-1.965.141-2.895.407.866-1.294 2.209-2.234 3.797-2.552zm-7.823 7.559.935-.935c1.599-1.598 3.725-2.479 5.986-2.479 2.294 0 4.453 1.011 5.922 2.774 1.391 1.668 2.157 3.785 2.157 5.957 0 1.128-.211 2.222-.606 3.269h-5.394c-.732 0-1.409.212-2 .556v-.556c0-1.103-.897-2-2-2h-2v-2c0-1.103-.897-2-2-2h-2c-1.103 0-2 .897-2 2v2h-2c-1.103 0-2 .897-2 2v.556c-.591-.344-1.268-.556-2-.556h-5.394c-.395-1.046-.606-2.141-.606-3.269 0-2.173.766-4.289 2.157-5.957 1.469-1.763 3.628-2.774 5.922-2.774 2.261 0 4.387.881 5.986 2.479zm10.414 16.586h4.586v8h-12.586zm-10.414 7.586-7.792-7.792c1.613-.516 2.792-2.012 2.792-3.794h2v2c0 1.103.897 2 2 2h2c1.103 0 2-.897 2-2v-2h2c0 1.782 1.179 3.278 2.792 3.793zm-9-13.586c1.103 0 2 .897 2 2s-.897 2-2 2h-2v-4zm14-1.997v1.997h-4v4h-2v-4h-4v-2h4v-4h2v4zm-21.465-13.003-.586-.879 1.051-.84 1.051.84-.586.879zm2.723 1.809-.173-.633.534-.8.678.542c-.365.271-.712.567-1.039.891zm-4.876-1.434.533.8-.4 1.461-.928-1.625zm2.381 1.625h.474l.482 1.759c-.483.776-.869 1.605-1.151 2.47l-.651-1.139zm12.211-2.593c-.929-.266-1.901-.407-2.895-.407-.817 0-1.616.112-2.39.308l1.411-2.468.077.015c1.588.318 2.931 1.258 3.797 2.552zm-5.941-2.981-1.615 2.827-2.572-2.058 2.296-1.148zm-5.891-14.426h-.284c-.447-1.721-2-3-3.858-3-.489 0-.952.101-1.385.262.439-.701 1.091-1.267 1.901-1.59l.432-.173c.85 1.464 2.212 2.593 3.843 3.138-.299.404-.519.864-.649 1.363zm-4.142-1c1.103 0 2 .897 2 2s-.897 2-2 2-2-.897-2-2 .897-2 2-2zm8 0c1.103 0 2 .897 2 2s-.897 2-2 2-2-.897-2-2 .897-2 2-2zm4 4v-4c1.103 0 2 .897 2 2s-.897 2-2 2zm-16-10h.618l.618-1.236c.852-1.705 2.566-2.764 4.472-2.764h6.169c3.376 0 6.123 2.747 6.123 6.123 0 .501-.062 1.001-.183 1.485l-.187.747c-.499-.224-1.048-.355-1.63-.355h-1-4c-2.757 0-5-2.243-5-5h-2c0 .566.075 1.114.203 1.642l-.431.173c-1.509.603-2.655 1.762-3.269 3.185h-.503c-.594 0-1.152.138-1.659.371-.183-.765-.341-1.633-.341-2.371 0-1.103.897-2 2-2zm-2 8c0-1.103.897-2 2-2h.029c-.008.129-.029.254-.029.385v3.615c-1.103 0-2-.897-2-2zm4.213 3.559c.54.273 1.142.441 1.787.441 1.858 0 3.411-1.279 3.858-3h.284c.447 1.721 2 3 3.858 3 .645 0 1.247-.168 1.787-.441-.689 2.554-3.019 4.441-5.787 4.441s-5.098-1.887-5.787-4.441zm5.787 6.441c.904 0 1.77-.158 2.581-.435l.312 1.871-2.893 1.446-2.892-1.446.312-1.871c.81.277 1.676.435 2.58.435zm-4.141 3.048 2.295 1.148-2.573 2.058-1.615-2.827zm-8.859 18.952v-12.262c0-2.85 2.028-5.324 4.823-5.883l.077-.015 7.119 12.459c-.006.144-.019.288-.019.432 0 1.12.174 2.212.494 3.269h-6.494v-9h-2v9.586l-1.707 1.707 1.414 1.414 1.707-1.707h10.586v4h-12c-2.206 0-4-1.794-4-4zm6 6h12.586l8 8h-20.586zm40 8v-8h6.04c.185 2.832 1.068 6.185 1.604 8zm8-10h-16c-1.103 0-2-.897-2-2s.897-2 2-2h14.586l1.707 1.707 1.414-1.414-1.707-1.707v-2.586h4v4c0 2.206-1.794 4-4 4z" data-original="#000000" class="" style="fill:#000000"/><path d="m51.789 19.658.105-.211-1.789-.895-.105.212c-.381.762-1.147 1.236-2 1.236s-1.619-.474-2-1.236l-.105-.211-1.789.895.105.211c.722 1.444 2.174 2.341 3.789 2.341s3.067-.897 3.789-2.342z" data-original="#000000" class="" style="fill:#000000"/><circle cx="45" cy="16" r="1" data-original="#000000" class="" style="fill:#000000"/><circle cx="51" cy="16" r="1" data-original="#000000" class="" style="fill:#000000"/></g></g></g> </svg>
