<?xml version="1.0"?>
<svg xmlns="http://www.w3.org/2000/svg" id="Layer_1" height="512px" viewBox="0 0 512 512" width="512px" data-name="Layer 1" class="hovered-paths"><g><path d="m205.5 71.01h262v424h-262z" fill="#d7dee6" data-original="#D7DEE6"/><path d="m177.5 35.01h318v36h-318z" fill="#b0b5ca" data-original="#B0B5CA" class="" style="fill:#5F7D95" data-old_color="#b0b5ca"/><path d="m31.5 177.01h174v318h-174z" fill="#d4e1f4" data-original="#D4E1F4" class="" style="fill:#D4E1F4"/><path d="m16.5 140.01h189v37h-189z" fill="#b0b5ca" data-original="#B0B5CA" class="" style="fill:#5F7D95" data-old_color="#b0b5ca"/><path d="m205.5 71.01h30v424h-30z" fill="#b1bcc4" data-original="#B1BCC4"/><path d="m177.5 35.01h30v36h-30z" fill="#8c95ad" data-original="#8C95AD"/><path d="m31.5 177.01h30v318h-30z" fill="#abbdce" data-original="#ABBDCE" class="" style="fill:#ABBDCE"/><path d="m16.5 140.01h30v37h-30z" fill="#8c95ad" data-original="#8C95AD"/><path d="m386.5 326.01h45v36.5h-45z" fill="#9acff2" data-original="#9ACFF2" class="" style="fill:#9ACFF2"/><path d="m386.5 289.51h45v36.5h-45z" fill="#7ecff2" data-original="#7ECFF2" class="" style="fill:#E2FFE2" data-old_color="#7ecff2"/><path d="m336.5 326.01h50v36.5h-50z" fill="#7ecff2" data-original="#7ECFF2" class="" style="fill:#E2FFE2" data-old_color="#7ecff2"/><path d="m336.5 289.51h50v36.5h-50z" fill="#9acff2" data-original="#9ACFF2" class="" style="fill:#9ACFF2"/><path d="m286.5 326.01h50v36.5h-50z" fill="#9acff2" data-original="#9ACFF2" class="" style="fill:#9ACFF2"/><path d="m286.5 289.51h50v36.5h-50z" fill="#7ecff2" data-original="#7ECFF2" class="" style="fill:#E2FFE2" data-old_color="#7ecff2"/><path d="m286.5 179.51h50v36.5h-50z" fill="#7ecff2" data-original="#7ECFF2" class="" style="fill:#E2FFE2" data-old_color="#7ecff2"/><path d="m241.5 326.01h45v36.5h-45z" fill="#7ecff2" data-original="#7ECFF2" class="" style="fill:#E2FFE2" data-old_color="#7ecff2"/><path d="m241.5 289.51h45v36.5h-45z" fill="#9acff2" data-original="#9ACFF2" class="" style="fill:#9ACFF2"/><path d="m124.5 385.01h45v36.5h-45z" fill="#7ecff2" data-original="#7ECFF2" class="" style="fill:#E2FFE2" data-old_color="#7ecff2"/><path d="m124.5 348.51h45v36.5h-45z" fill="#9acff2" data-original="#9ACFF2" class="" style="fill:#9ACFF2"/><path d="m124.5 275.01h45v36.5h-45z" fill="#7ecff2" data-original="#7ECFF2" class="" style="fill:#E2FFE2" data-old_color="#7ecff2"/><path d="m124.5 238.51h45v36.5h-45z" fill="#9acff2" data-original="#9ACFF2" class="" style="fill:#9ACFF2"/><path d="m74.5 385.01h50v36.5h-50z" fill="#9acff2" data-original="#9ACFF2" class="" style="fill:#9ACFF2"/><path d="m74.5 348.51h50v36.5h-50z" fill="#7ecff2" data-original="#7ECFF2" class="" style="fill:#E2FFE2" data-old_color="#7ecff2"/><path d="m74.5 275.01h50v36.5h-50z" fill="#9acff2" data-original="#9ACFF2" class="" style="fill:#9ACFF2"/><path d="m74.5 238.51h50v36.5h-50z" fill="#7ecff2" data-original="#7ECFF2" class="" style="fill:#E2FFE2" data-old_color="#7ecff2"/><path d="m31.5 385.01h43v36.5h-43z" fill="#7ecff2" data-original="#7ECFF2" class="" style="fill:#E2FFE2" data-old_color="#7ecff2"/><path d="m31.5 348.51h43v36.5h-43z" fill="#9acff2" data-original="#9ACFF2" class="" style="fill:#9ACFF2"/><path d="m31.5 275.01h43v36.5h-43z" fill="#7ecff2" data-original="#7ECFF2" class="" style="fill:#E2FFE2" data-old_color="#7ecff2"/><path d="m31.5 238.51h43v36.5h-43z" fill="#9acff2" data-original="#9ACFF2" class="" style="fill:#9ACFF2"/><path d="m404 71.02a69.807 69.807 0 1 1 -21.07-35.9 69.918 69.918 0 0 1 21.07 35.9z" fill="#f2838d" data-original="#F2838D" class="hovered-path active-path" style="fill:#f2838d" data-old_color="#f2838d"/><path d="m386.5 216.01h45v36.5h-45z" fill="#9acff2" data-original="#9ACFF2" class="" style="fill:#9ACFF2"/><path d="m386.5 179.51h45v36.5h-45z" fill="#7ecff2" data-original="#7ECFF2" class="" style="fill:#E2FFE2" data-old_color="#7ecff2"/><path d="m336.5 216.01h50v36.5h-50z" fill="#7ecff2" data-original="#7ECFF2" class="" style="fill:#E2FFE2" data-old_color="#7ecff2"/><path d="m336.5 179.51h50v36.5h-50z" fill="#9acff2" data-original="#9ACFF2" class="" style="fill:#9ACFF2"/><path d="m286.5 216.01h50v36.5h-50z" fill="#9acff2" data-original="#9ACFF2" class="" style="fill:#9ACFF2"/><path d="m241.5 216.01h45v36.5h-45z" fill="#7ecff2" data-original="#7ECFF2" class="" style="fill:#E2FFE2" data-old_color="#7ecff2"/><path d="m241.5 179.51h45v36.5h-45z" fill="#9acff2" data-original="#9ACFF2" class="" style="fill:#9ACFF2"/><path d="m336.5 394.01h50v101h-50z" fill="#7ecff2" data-original="#7ECFF2" class="" style="fill:#E2FFE2" data-old_color="#7ecff2"/><path d="m287.5 394.01h49v101h-49z" fill="#9acff2" data-original="#9ACFF2" class="" style="fill:#9ACFF2"/><path d="m296.21 86.78a69.764 69.764 0 0 1 54.79-68.155 69.79 69.79 0 1 0 0 136.311 69.8 69.8 0 0 1 -54.79-68.156z" fill="#d16d7e" data-original="#D16D7E"/><path d="m375.21 76.87v18.83h-29.3v30.29h-19.82v-29.29h-29.3v-19.83h29.3v-29.29h19.82v29.29z" fill="#d4e1f4" data-original="#D4E1F4" class="" style="fill:#D4E1F4"/><g fill="#344d6b"><path d="m495.5 29.007h-110.528a75.573 75.573 0 0 0 -97.944 0h-109.528a6 6 0 0 0 -6 6v36a6 6 0 0 0 6 6h22v57h-183a6 6 0 0 0 -6 6v37a6 6 0 0 0 6 6h9v312a6 6 0 0 0 6 6h436a6 6 0 0 0 6-6v-418h22a6 6 0 0 0 6-6v-36a6 6 0 0 0 -6-6zm-296 460h-162v-61.5h132a6 6 0 0 0 6-6v-73a6 6 0 0 0 -6-6h-132v-25h132a6 6 0 0 0 6-6v-73a6 6 0 0 0 -6-6h-132v-49.5h162zm-131-98v24.5h-31v-24.5zm-31-12v-24.5h31v24.5zm81 12v24.5h-38v-24.5zm-38-12v-24.5h38v24.5zm83 12v24.5h-33v-24.5zm-33-12v-24.5h33v24.5zm-62-98v24.5h-31v-24.5zm-31-12v-24.5h31v24.5zm81 12v24.5h-38v-24.5zm-38-12v-24.5h38v24.5zm83 12v24.5h-33v-24.5zm-33-12v-24.5h33v24.5zm69-98h-177v-25h177zm136.5-148.014a63.79 63.79 0 1 1 -63.789 63.79 63.861 63.861 0 0 1 63.789-63.79zm-152.5 42.014v-24h92.147a75.6 75.6 0 0 0 -12.233 24zm147 424h-37v-89h37zm50 0h-38v-89h38zm81 0h-69v-95a6 6 0 0 0 -6-6h-99a6 6 0 0 0 -6 6v95h-70v-412h49.362a75.789 75.789 0 1 0 150.276 0h50.362zm28-424h-80.914a75.6 75.6 0 0 0 -12.233-24h93.147z" data-original="#344D6B" class="" style="fill:#344D6B"/><path d="m431.5 283.507h-190a6 6 0 0 0 -6 6v73a6 6 0 0 0 6 6h190a6 6 0 0 0 6-6v-73a6 6 0 0 0 -6-6zm-151 73h-33v-24.5h33zm0-36.5h-33v-24.5h33zm50 36.5h-38v-24.5h38zm0-36.5h-38v-24.5h38zm50 36.5h-38v-24.5h38zm0-36.5h-38v-24.5h38zm45 36.5h-33v-24.5h33zm0-36.5h-33v-24.5h33z" data-original="#344D6B" class="" style="fill:#344D6B"/><path d="m235.5 179.507v73a6 6 0 0 0 6 6h190a6 6 0 0 0 6-6v-73a6 6 0 0 0 -6-6h-190a6 6 0 0 0 -6 6zm157 6h33v24.5h-33zm0 36.5h33v24.5h-33zm-50-36.5h38v24.5h-38zm0 36.5h38v24.5h-38zm-50-36.5h38v24.5h-38zm0 36.5h38v24.5h-38zm-45-36.5h33v24.5h-33zm0 36.5h33v24.5h-33z" data-original="#344D6B" class="" style="fill:#344D6B"/><path d="m296.794 102.7h23.292v23.291a6 6 0 0 0 6 6h19.828a6 6 0 0 0 6-6v-24.291h23.292a6 6 0 0 0 6-6v-18.831a6 6 0 0 0 -6-6h-23.292v-23.292a6 6 0 0 0 -6-6h-19.828a6 6 0 0 0 -6 6v23.292h-23.292a6 6 0 0 0 -6 6v19.831a6 6 0 0 0 6 6zm6-19.828h23.292a6 6 0 0 0 6-6v-23.295h7.828v23.292a6 6 0 0 0 6 6h23.292v6.831h-23.292a6 6 0 0 0 -6 6v24.291h-7.828v-23.291a6 6 0 0 0 -6-6h-23.292z" data-original="#344D6B" class="" style="fill:#344D6B"/></g></g> </svg>
