<svg id="Capa_1" enable-background="new 0 0 512 512" height="512" viewBox="0 0 512 512" width="512" xmlns="http://www.w3.org/2000/svg"><g><g><path d="m139.821 142.882c-10.161 0-18.398-8.237-18.398-18.398v-55.413c0-10.161 8.237-18.398 18.398-18.398 10.161 0 18.398 8.237 18.398 18.398v55.412c0 10.162-8.237 18.399-18.398 18.399z" fill="#f6e080"/><path d="m373.236 142.882c-10.161 0-18.398-8.237-18.398-18.398v-55.413c0-10.161 8.237-18.398 18.398-18.398 10.161 0 18.398 8.237 18.398 18.398v55.412c0 10.162-8.237 18.399-18.398 18.399z" fill="#f6e080"/><path d="m139.821 124.882c-10.161 0-18.398-8.237-18.398-18.398v18c0 10.161 8.237 18.398 18.398 18.398s18.398-8.237 18.398-18.398v-18c0 10.161-8.237 18.398-18.398 18.398z" fill="#eccd61"/><path d="m373.236 124.882c-10.161 0-18.398-8.237-18.398-18.398v18c0 10.161 8.237 18.398 18.398 18.398s18.398-8.237 18.398-18.398v-18c0 10.161-8.237 18.398-18.398 18.398z" fill="#eccd61"/><path d="m391.634 96.807v27.677c0 10.161-8.237 18.398-18.398 18.398s-18.398-8.237-18.398-18.398v-27.677h-196.619v27.677c0 10.161-8.237 18.398-18.398 18.398-10.161 0-18.398-8.237-18.398-18.398v-27.677h-59.859l-53.564 364.52h401.122l47.495-364.52z" fill="#e7ecf1"/><path d="m50.189 174.22-2.645 18h396.642l2.345-18z" fill="#c6d0da"/><path d="m409.122 461.327h94.878l-47.382-364.52z" fill="#909ba5"/><path d="m456.618 96.807-47.496 364.52h18l38.485-295.364z" fill="#808b95"/><path d="m391.634 96.807v27.677c0 10.161-8.237 18.398-18.398 18.398s-18.398-8.237-18.398-18.398v-27.677h-196.619v27.677c0 10.161-8.237 18.398-18.398 18.398-10.161 0-18.398-8.237-18.398-18.398v-27.677h-59.859l-11.375 77.413h396.343l10.087-77.413z" fill="#dc4955"/><g><g><g><path d="m52.834 156.22-2.645 18h396.342l2.345-18z" fill="#d82f3c"/></g></g></g><path d="m385.425 238.616-24.176 164.52h-290.726l24.176-164.52z" fill="#9ec8fc"/><path d="m73.168 385.136-2.645 18h290.726l2.645-18z" fill="#80b6fc"/></g><g><path d="m511.922 460.747-15.859-122.007c-.535-4.114-4.3-7.02-8.42-6.483-4.115.535-7.018 4.305-6.483 8.42l14.756 113.524h-77.946l39.019-299.47 20.292 156.115c1.642 9.847 15.853 7.94 14.903-1.937l-27.734-213.374c-.429-3.66-3.766-6.597-7.452-6.545h-57.593v-20.274c0-14.307-11.64-25.947-25.947-25.947s-25.947 11.64-25.947 25.947v20.274h-181.962v-20.274c0-14.307-11.64-25.947-25.947-25.947s-25.948 11.64-25.948 25.947v20.274h-52.458c-3.728 0-6.893 2.734-7.435 6.421l-53.665 365.211c-.75 4.39 2.984 8.711 7.434 8.607h99.719c4.15 0 7.514-3.364 7.514-7.514s-3.364-7.514-7.514-7.514h-91.019l40.06-272.623h204.696c4.15 0 7.514-3.364 7.514-7.514s-3.364-7.514-7.514-7.514h-202.487l9.188-62.531h45.967v20.216c0 14.307 11.64 25.947 25.948 25.947 14.307 0 25.947-11.639 25.947-25.947v-20.216h181.962v20.216c0 14.307 11.64 25.947 25.947 25.947s25.947-11.639 25.947-25.947v-20.216h49.036l-8.147 62.531h-149.251c-4.15 0-7.514 3.364-7.514 7.514s3.364 7.514 7.514 7.514h147.293l-35.522 272.623h-265.507c-4.15 0-7.514 3.364-7.514 7.514s3.364 7.514 7.514 7.514h367.163c4.405.101 8.119-4.129 7.452-8.482zm-361.402-336.513c0 6.02-4.898 10.918-10.919 10.918s-10.919-4.898-10.919-10.918v-55.518c0-6.021 4.898-10.919 10.919-10.919s10.919 4.898 10.919 10.919zm233.857 0c0 6.02-4.898 10.918-10.919 10.918s-10.919-4.898-10.919-10.918v-55.518c0-6.021 4.898-10.919 10.919-10.919s10.919 4.898 10.919 10.919z"/><path d="m62.668 403.599c.013 3.978 3.567 7.411 7.536 7.33h291.242c3.635.053 6.96-2.818 7.438-6.421l24.221-164.832c.736-4.389-2.985-8.697-7.435-8.607h-291.276c-3.636-.045-6.95 2.818-7.435 6.421l-24.221 164.832c-.041.423-.093.852-.07 1.277zm22.069-47.614h43.065l-5.865 39.915h-43.065zm8.074-54.944h43.065l-5.865 39.915h-43.065zm8.074-54.944h43.065l-5.866 39.916h-43.065zm101.32 0-5.865 39.916h-43.066l5.866-39.916zm58.256 0-5.865 39.916h-43.066l5.865-39.916zm58.255 0-5.865 39.916h-43.065l5.865-39.916zm58.255 0-5.865 39.916h-43.065l5.865-39.916zm-13.939 94.86h-43.065l5.865-39.915h43.065zm-8.073 54.943h-43.065l5.865-39.915h43.065zm-101.321 0 5.865-39.915h43.065l-5.865 39.915zm-58.255 0 5.865-39.915h43.065l-5.865 39.915zm-58.256 0 5.865-39.915h43.066l-5.865 39.915zm109.394-54.943h-43.065l5.865-39.915h43.065zm21.056-39.916h43.065l-5.865 39.915h-43.065zm-79.311 39.916h-43.066l5.865-39.915h43.066z"/></g></g></svg>