<svg id="tools" enable-background="new 0 0 300 300" height="512" viewBox="0 0 300 300" width="512" xmlns="http://www.w3.org/2000/svg"><g><circle cx="144" cy="122" fill="#ffc7c7" r="86"/><g><path d="m177.686 212h-19.367l9.752 36z" fill="#edebdc"/><path d="m168.07 252c-1.805 0-3.387-1.211-3.859-2.955l-9.75-36c-.328-1.201-.074-2.486.684-3.477.758-.988 1.93-1.568 3.176-1.568h19.367c1.242 0 2.414.578 3.172 1.564.758.984 1.012 2.268.691 3.469l-9.617 36c-.465 1.746-2.047 2.963-3.855 2.967-.005 0-.005 0-.009 0zm-4.523-36 4.496 16.602 4.437-16.602z" fill="#4c241d"/></g><g><path d="m178 210.823v-148.823c0-5.523-4.477-10-10-10-5.523 0-10 4.477-10 10v148.824l.319 1.177h19.367z" fill="#ffce56"/><path d="m177.688 216h-19.368c-1.805 0-3.387-1.207-3.859-2.949l-.32-1.176c-.094-.342-.141-.695-.141-1.051v-148.824c0-7.719 6.281-14 14-14s14 6.281 14 14v148.824c0 .348-.047.691-.133 1.027l-.312 1.176c-.469 1.752-2.055 2.973-3.867 2.973zm.312-5.176h.039zm-16-2.824h12v-146c0-3.309-2.691-6-6-6s-6 2.691-6 6z" fill="#4c241d"/></g><g><path d="m158 96h20v12h-20z" fill="#b5a19c"/><path d="m178 112h-20c-2.211 0-4-1.791-4-4v-12c0-2.209 1.789-4 4-4h20c2.211 0 4 1.791 4 4v12c0 2.209-1.789 4-4 4zm-16-8h12v-4h-12z" fill="#4c241d"/></g><g><path d="m123.629 163.616c.844-2.058 1.512-4.207 1.985-6.43l12.386-.716v-12.94l-12.119-.701c-.91-5.378-2.913-10.382-5.824-14.744l7.882-8.853-9.147-9.153-8.773 7.801c-4.377-3.036-9.419-5.162-14.865-6.15l-.684-11.73h-12.94l-.69 11.829c-5.349 1.064-10.279 3.263-14.567 6.311l-9.065-8.06-9.147 9.153 8.262 9.28c-2.757 4.25-4.673 9.082-5.558 14.273l-12.765.744v12.94l13.037.761c1.061 4.964 3.086 9.566 5.873 13.608l-8.849 9.93 9.147 9.153 10.027-8.925c4.035 2.683 8.605 4.623 13.522 5.613l.773 13.39h12.94l.769-13.293c5.008-.919 9.668-2.81 13.786-5.48l9.767 8.694 9.147-9.153-8.502-9.54c1.67-2.356 3.083-4.906 4.192-7.612m-35.309-.49c-7.678 0-13.902-6.224-13.902-13.902 0-7.677 6.224-13.902 13.902-13.902s13.902 6.224 13.902 13.902c-.001 7.679-6.225 13.902-13.902 13.902z" fill="#a9ba5a"/><path d="m94.469 204h-12.938c-2.117 0-3.871-1.652-3.992-3.768l-.605-10.43c-3.23-.904-6.324-2.191-9.258-3.846l-7.809 6.951c-1.582 1.408-3.992 1.342-5.488-.16l-9.148-9.152c-1.5-1.5-1.566-3.908-.156-5.49l6.84-7.674c-1.73-2.955-3.078-6.092-4.039-9.379l-10.109-.588c-2.115-.124-3.767-1.874-3.767-3.993v-12.941c0-2.119 1.652-3.869 3.766-3.994l9.715-.564c.867-3.498 2.176-6.84 3.902-9.988l-6.312-7.09c-1.406-1.582-1.34-3.99.16-5.488l9.148-9.152c1.496-1.496 3.91-1.566 5.484-.162l6.777 6.027c3.266-1.975 6.738-3.477 10.379-4.488l.52-8.863c.121-2.116 1.875-3.768 3.992-3.768h12.938c2.117 0 3.871 1.65 3.992 3.766l.512 8.711c3.754.971 7.316 2.445 10.648 4.404l6.516-5.791c1.578-1.404 3.992-1.334 5.484.162l9.148 9.152c1.5 1.498 1.566 3.906.16 5.488l-5.906 6.635c1.848 3.281 3.238 6.791 4.148 10.486l9.059.521c2.117.123 3.77 1.875 3.77 3.994v12.939c0 2.119-1.652 3.871-3.77 3.994l-9.457.547c-.41 1.398-.891 2.777-1.441 4.125-.004 0-.004 0-.004 0-.805 1.965-1.766 3.877-2.871 5.715l6.469 7.256c1.41 1.582 1.344 3.99-.156 5.49l-9.148 9.152c-1.492 1.502-3.902 1.568-5.488.16l-7.574-6.744c-3.008 1.65-6.184 2.918-9.5 3.789l-.598 10.277c-.122 2.12-1.872 3.772-3.993 3.772zm-9.164-8h5.391l.551-9.523c.105-1.842 1.457-3.371 3.27-3.703 4.418-.812 8.566-2.461 12.336-4.904 1.516-.977 3.484-.83 4.836.369l6.945 6.184 3.809-3.811-5.988-6.721c-1.242-1.391-1.355-3.451-.281-4.973 1.516-2.141 2.777-4.434 3.754-6.818.762-1.855 1.359-3.789 1.773-5.746.375-1.762 1.883-3.057 3.684-3.162l8.617-.498v-5.389l-8.348-.48c-1.863-.107-3.402-1.488-3.715-3.326-.809-4.789-2.562-9.229-5.207-13.191-1.008-1.516-.871-3.521.34-4.881l5.375-6.035-3.812-3.814-5.957 5.293c-1.383 1.227-3.414 1.346-4.938.297-4-2.775-8.473-4.627-13.297-5.5-1.816-.328-3.172-1.857-3.277-3.701l-.471-7.967h-5.391l-.473 8.062c-.105 1.816-1.426 3.334-3.211 3.689-4.684.932-9.066 2.832-13.031 5.648-1.52 1.078-3.582.969-4.973-.27l-6.25-5.555-3.812 3.814 5.754 6.461c1.195 1.346 1.348 3.324.367 4.836-2.516 3.883-4.188 8.178-4.965 12.768-.312 1.838-1.852 3.215-3.711 3.324l-9 .523v5.395l9.27.539c1.797.105 3.301 1.396 3.676 3.156.938 4.385 2.707 8.48 5.258 12.174 1.047 1.518.922 3.557-.309 4.934l-6.336 7.111 3.809 3.811 7.207-6.414c1.359-1.209 3.359-1.348 4.875-.342 3.703 2.461 7.77 4.15 12.094 5.021 1.781.359 3.098 1.875 3.203 3.689zm38.324-32.383h.039zm-35.309 3.51c-9.871 0-17.902-8.031-17.902-17.902s8.031-17.9 17.902-17.9 17.902 8.029 17.902 17.9-8.031 17.902-17.902 17.902zm0-27.803c-5.461 0-9.902 4.441-9.902 9.9 0 5.461 4.441 9.902 9.902 9.902s9.902-4.441 9.902-9.902c.001-5.458-4.441-9.9-9.902-9.9z" fill="#4c241d"/></g><g><path d="m214 40h48v220h-48z" fill="#fff"/><path d="m262 264h-48c-2.211 0-4-1.791-4-4v-220c0-2.209 1.789-4 4-4h48c2.211 0 4 1.791 4 4v220c0 2.209-1.789 4-4 4zm-44-8h40v-212h-40z" fill="#4c241d"/></g><g fill="#4c241d"><path d="m226 64h-12c-2.211 0-4-1.791-4-4s1.789-4 4-4h12c2.211 0 4 1.791 4 4s-1.789 4-4 4z"/><path d="m230 80h-16c-2.211 0-4-1.791-4-4s1.789-4 4-4h16c2.211 0 4 1.791 4 4s-1.789 4-4 4z"/><path d="m226 96h-12c-2.211 0-4-1.791-4-4s1.789-4 4-4h12c2.211 0 4 1.791 4 4s-1.789 4-4 4z"/><path d="m230 112h-16c-2.211 0-4-1.791-4-4s1.789-4 4-4h16c2.211 0 4 1.791 4 4s-1.789 4-4 4z"/><path d="m226 128h-12c-2.211 0-4-1.791-4-4s1.789-4 4-4h12c2.211 0 4 1.791 4 4s-1.789 4-4 4z"/><path d="m230 144h-16c-2.211 0-4-1.791-4-4s1.789-4 4-4h16c2.211 0 4 1.791 4 4s-1.789 4-4 4z"/><path d="m226 160h-12c-2.211 0-4-1.791-4-4s1.789-4 4-4h12c2.211 0 4 1.791 4 4s-1.789 4-4 4z"/><path d="m230 176h-16c-2.211 0-4-1.791-4-4s1.789-4 4-4h16c2.211 0 4 1.791 4 4s-1.789 4-4 4z"/><path d="m226 192h-12c-2.211 0-4-1.791-4-4s1.789-4 4-4h12c2.211 0 4 1.791 4 4s-1.789 4-4 4z"/><path d="m230 208h-16c-2.211 0-4-1.791-4-4s1.789-4 4-4h16c2.211 0 4 1.791 4 4s-1.789 4-4 4z"/><path d="m226 224h-12c-2.211 0-4-1.791-4-4s1.789-4 4-4h12c2.211 0 4 1.791 4 4s-1.789 4-4 4z"/><path d="m230 240h-16c-2.211 0-4-1.791-4-4s1.789-4 4-4h16c2.211 0 4 1.791 4 4s-1.789 4-4 4z"/><circle cx="248" cy="54" r="4.529"/><path d="m127.656 81.656c-1.023 0-2.047-.391-2.828-1.172l-11.312-11.312c-1.562-1.562-1.562-4.094 0-5.656s4.094-1.562 5.656 0l11.312 11.312c1.562 1.562 1.562 4.094 0 5.656-.781.782-1.804 1.172-2.828 1.172z"/><path d="m116.344 81.656c-1.023 0-2.047-.391-2.828-1.172-1.562-1.562-1.562-4.094 0-5.656l11.312-11.312c1.562-1.562 4.094-1.562 5.656 0s1.562 4.094 0 5.656l-11.312 11.312c-.781.782-1.805 1.172-2.828 1.172z"/><circle cx="84" cy="46" r="4.529"/><path d="m110 240c-6.617 0-12-5.383-12-12s5.383-12 12-12 12 5.383 12 12-5.383 12-12 12zm0-16c-2.207 0-4 1.795-4 4s1.793 4 4 4 4-1.795 4-4-1.793-4-4-4z"/></g></g></svg>