<svg height="512pt" viewBox="0 0 512 512" width="512pt" xmlns="http://www.w3.org/2000/svg"><path d="m467 512h-422c-24.8125 0-45-20.1875-45-45v-422c0-24.8125 20.1875-45 45-45h422c24.8125 0 45 20.1875 45 45v422c0 24.8125-20.1875 45-45 45zm0 0" fill="#e1ebf0"/><path d="m467 0h-211v512h211c24.8125 0 45-20.1875 45-45v-422c0-24.8125-20.1875-45-45-45zm0 0" fill="#cde1e6"/><path d="m45 30c-8.269531 0-15 6.730469-15 15v422c0 8.269531 6.730469 15 15 15h422c8.269531 0 15-6.730469 15-15v-422c0-8.269531-6.730469-15-15-15zm0 0" fill="#ff6379"/><path d="m467 30h-211v452h211c8.269531 0 15-6.730469 15-15v-422c0-8.269531-6.730469-15-15-15zm0 0" fill="#ff415b"/><path d="m171.195312 252c-4.554687 0-9.054687-2.066406-12.003906-5.988281l-79.179687-105.34375c-2.394531-3.183594-3.421875-7.1875-2.863281-11.128907.5625-3.9375 2.667968-7.496093 5.851562-9.886718 50.289062-37.714844 110.113281-57.652344 173-57.652344s122.710938 19.9375 173 57.652344c3.183594 2.390625 5.289062 5.945312 5.851562 9.886718.558594 3.941407-.46875 7.945313-2.859374 11.128907l-79.183594 105.34375c-4.976563 6.621093-14.371094 7.957031-20.992188 2.988281-22.039062-16.527344-48.253906-25.265625-75.816406-25.265625-27.558594 0-53.777344 8.738281-75.816406 25.265625-2.699219 2.023438-5.859375 3-8.988282 3zm0 0" fill="#485959"/><path d="m331.816406 249c6.621094 4.96875 16.015625 3.628906 20.988282-2.988281l79.183593-105.34375c2.394531-3.183594 3.421875-7.1875 2.863281-11.128907-.5625-3.9375-2.667968-7.496093-5.851562-9.886718-50.289062-37.714844-110.113281-57.652344-173-57.652344v161.734375c27.5625 0 53.777344 8.738281 75.816406 25.265625zm0 0" fill="#3f4a4a"/><path d="m113.269531 134.984375 61.324219 81.585937c24.480469-14.980468 52.339844-22.835937 81.40625-22.835937s56.925781 7.855469 81.40625 22.835937l61.324219-81.585937c-42.378907-28.167969-91.417969-42.984375-142.730469-42.984375s-100.351562 14.816406-142.730469 42.984375zm0 0" fill="#e1ebf0"/><path d="m337.40625 216.570312 61.324219-81.585937c-42.378907-28.167969-91.417969-42.984375-142.730469-42.984375v101.734375c29.066406 0 56.925781 7.855469 81.40625 22.835937zm0 0" fill="#cde1e6"/><path d="m256 223.734375c-8.285156 0-15-6.714844-15-15v-60c0-8.285156 6.714844-15 15-15s15 6.714844 15 15v60c0 8.285156-6.714844 15-15 15zm0 0" fill="#485959"/><path d="m271 208.734375v-60c0-8.285156-6.714844-15-15-15v90c8.285156 0 15-6.714844 15-15zm0 0" fill="#3f4a4a"/></svg>